<svg width="100" height="473" viewBox="0 0 100 473" fill="none" xmlns="http://www.w3.org/2000/svg">
<rect x="18" width="65" height="473" fill="#0C1F47"/>
<path d="M15.5 358.849V140.235C41.7876 135.299 58.2518 135.218 84.5 140.218V358.93C60.1019 361.088 43.2491 360.984 15.5 358.849Z" fill="black" stroke="url(#paint0_radial_65_44)" stroke-width="13"/>
<path d="M26.5 227V345.5" stroke="url(#paint1_linear_65_44)" stroke-width="3"/>
<path d="M34.5 227V345.5" stroke="url(#paint2_linear_65_44)" stroke-width="3"/>
<path d="M42.5 227V345.5" stroke="url(#paint3_linear_65_44)" stroke-width="3"/>
<path d="M50.5 227V345.5" stroke="url(#paint4_linear_65_44)" stroke-width="3"/>
<path d="M58.5 227V345.5" stroke="url(#paint5_linear_65_44)" stroke-width="3"/>
<path d="M66.5 227V345.5" stroke="url(#paint6_linear_65_44)" stroke-width="3"/>
<path d="M74.5 227V345.5" stroke="url(#paint7_linear_65_44)" stroke-width="3"/>
<path d="M17 227V350.5C22.5 354 75.5 353 82.5 350.5V227" stroke="url(#paint8_linear_65_44)" stroke-width="3"/>
<path d="M0 185.5L11.5 181L9.5 188H5.5L5 191.5H0V185.5Z" fill="black"/>
<path d="M100 185.5L88.5 181L90.5 188H94.5L95 191.5H100V185.5Z" fill="black"/>
<path d="M16.5 195.5L10 182V216H16.5V195.5Z" fill="url(#paint9_linear_65_44)"/>
<path d="M83.5 195.5L90 182V216H83.5V195.5Z" fill="url(#paint10_linear_65_44)"/>
<path d="M18 194.5L16 170.5C41.5 159.5 58.5 160.5 84.5 170.5L80.5 194.5C55.8841 191.647 42.2187 191.899 18 194.5Z" fill="url(#paint11_radial_65_44)"/>
<defs>
<radialGradient id="paint0_radial_65_44" cx="0" cy="0" r="1" gradientUnits="userSpaceOnUse" gradientTransform="translate(50.5062 243.366) rotate(90) scale(71.9914 24.9084)">
<stop stop-color="#020A1B"/>
<stop offset="1" stop-color="#020A1B" stop-opacity="0"/>
</radialGradient>
<linearGradient id="paint1_linear_65_44" x1="27" y1="227" x2="27" y2="345.5" gradientUnits="userSpaceOnUse">
<stop stop-color="#202020" stop-opacity="0.35"/>
<stop offset="0.578125" stop-color="#151515" stop-opacity="0.57"/>
<stop offset="1" stop-color="#141414" stop-opacity="0.42"/>
</linearGradient>
<linearGradient id="paint2_linear_65_44" x1="35" y1="227" x2="35" y2="345.5" gradientUnits="userSpaceOnUse">
<stop stop-color="#202020" stop-opacity="0.35"/>
<stop offset="0.578125" stop-color="#151515" stop-opacity="0.57"/>
<stop offset="1" stop-color="#141414" stop-opacity="0.42"/>
</linearGradient>
<linearGradient id="paint3_linear_65_44" x1="43" y1="227" x2="43" y2="345.5" gradientUnits="userSpaceOnUse">
<stop stop-color="#202020" stop-opacity="0.35"/>
<stop offset="0.578125" stop-color="#151515" stop-opacity="0.57"/>
<stop offset="1" stop-color="#141414" stop-opacity="0.42"/>
</linearGradient>
<linearGradient id="paint4_linear_65_44" x1="51" y1="227" x2="51" y2="345.5" gradientUnits="userSpaceOnUse">
<stop stop-color="#202020" stop-opacity="0.35"/>
<stop offset="0.578125" stop-color="#151515" stop-opacity="0.57"/>
<stop offset="1" stop-color="#141414" stop-opacity="0.42"/>
</linearGradient>
<linearGradient id="paint5_linear_65_44" x1="59" y1="227" x2="59" y2="345.5" gradientUnits="userSpaceOnUse">
<stop stop-color="#202020" stop-opacity="0.35"/>
<stop offset="0.578125" stop-color="#151515" stop-opacity="0.57"/>
<stop offset="1" stop-color="#141414" stop-opacity="0.42"/>
</linearGradient>
<linearGradient id="paint6_linear_65_44" x1="67" y1="227" x2="67" y2="345.5" gradientUnits="userSpaceOnUse">
<stop stop-color="#202020" stop-opacity="0.35"/>
<stop offset="0.578125" stop-color="#151515" stop-opacity="0.57"/>
<stop offset="1" stop-color="#141414" stop-opacity="0.42"/>
</linearGradient>
<linearGradient id="paint7_linear_65_44" x1="75" y1="227" x2="75" y2="345.5" gradientUnits="userSpaceOnUse">
<stop stop-color="#202020" stop-opacity="0.35"/>
<stop offset="0.578125" stop-color="#151515" stop-opacity="0.57"/>
<stop offset="1" stop-color="#141414" stop-opacity="0.42"/>
</linearGradient>
<linearGradient id="paint8_linear_65_44" x1="49.75" y1="227" x2="49.75" y2="352.765" gradientUnits="userSpaceOnUse">
<stop stop-color="#202020" stop-opacity="0.35"/>
<stop offset="0.578125" stop-color="#151515" stop-opacity="0.57"/>
<stop offset="1" stop-color="#141414" stop-opacity="0.42"/>
</linearGradient>
<linearGradient id="paint9_linear_65_44" x1="-3" y1="206" x2="17" y2="206.5" gradientUnits="userSpaceOnUse">
<stop stop-color="white" stop-opacity="0"/>
<stop offset="1" stop-color="white"/>
</linearGradient>
<linearGradient id="paint10_linear_65_44" x1="78" y1="207.5" x2="111.5" y2="208.5" gradientUnits="userSpaceOnUse">
<stop stop-color="white"/>
<stop offset="1" stop-color="white" stop-opacity="0"/>
</linearGradient>
<radialGradient id="paint11_radial_65_44" cx="0" cy="0" r="1" gradientUnits="userSpaceOnUse" gradientTransform="translate(50.375 173) rotate(-89.8064) scale(37.0001 79.5032)">
<stop offset="0.421875" stop-color="#C2D2D0"/>
<stop offset="1" stop-color="#435552" stop-opacity="0"/>
</radialGradient>
</defs>
</svg>
