<svg width="60" height="20" viewBox="0 0 60 20" fill="none" xmlns="http://www.w3.org/2000/svg">
<path d="M58.2526 20H45.6142C44.5272 15.7995 42.1585 9.46793 37.6269 8.60131C33.972 7.90271 5.67564 19.4827 0.904976 19.5026C11.354 14.0044 16.025 11.2255 36.7525 1.26158C41.8087 -1.16804 47.8789 -0.0206601 51.6622 4.12009C56.3554 9.2579 58.5581 16.7524 58.2526 20Z" fill="white"/>
<path d="M5.33936 20C5.33936 20 33.7466 9.42492 38.0556 10.6939C42.3646 11.9629 43.8009 20 43.8009 20H5.33936Z" fill="white"/>
<path d="M49.0498 3.01476L54.2121 1.991C54.2121 1.991 56.1479 3.28417 56.4706 5.61906C55.841 8.04375 53.7527 4.22711 53.7527 4.22711L53.0828 2.907L49.0498 3.82299V3.01476Z" fill="white"/>
</svg>
