<svg width="127" height="22" viewBox="0 0 127 22" fill="none" xmlns="http://www.w3.org/2000/svg">
<g clip-path="url(#clip0_23_25)">
<path d="M118.142 18.0754L113.417 7.67679H116.581L119.808 15.1345L123.538 7.67679H126.649L119.295 22H116.131L118.142 18.0754ZM106.637 15.9224C106.916 15.8615 107.186 15.7653 107.439 15.6363C107.683 15.5118 107.91 15.3583 108.114 15.1797C108.318 15.0005 108.495 14.7943 108.638 14.5674C108.788 14.329 108.904 14.0724 108.984 13.8045C109.07 13.5123 109.112 13.2098 109.11 12.9062C109.112 12.5993 109.07 12.2934 108.984 11.9978C108.904 11.73 108.788 11.4734 108.638 11.235C108.494 11.0071 108.318 10.7994 108.114 10.6177C107.912 10.4375 107.685 10.2854 107.439 10.166C107.184 10.0433 106.915 9.95063 106.637 9.89001C106.345 9.82586 106.046 9.79387 105.747 9.79465C105.449 9.79367 105.152 9.82567 104.861 9.89001C104.587 9.95066 104.321 10.0434 104.07 10.166C103.825 10.287 103.598 10.4389 103.395 10.6177C103.189 10.7984 103.01 11.0062 102.866 11.235C102.716 11.4729 102.601 11.7297 102.525 11.9978C102.442 12.294 102.402 12.5996 102.405 12.9062C102.402 13.2095 102.443 13.5117 102.525 13.8045C102.601 14.0727 102.716 14.3295 102.866 14.5674C103.01 14.7952 103.188 15.0015 103.395 15.1797C103.6 15.3569 103.827 15.5102 104.07 15.6363C104.319 15.7652 104.585 15.8615 104.861 15.9224C105.152 15.9869 105.449 16.0189 105.747 16.0178C106.046 16.0187 106.345 15.9867 106.637 15.9224ZM103.447 18.2511C102.962 18.1328 102.495 17.954 102.059 17.7191C101.209 17.2612 100.507 16.5873 100.032 15.7719C99.7865 15.3503 99.5998 14.8998 99.4764 14.4319C99.2179 13.4265 99.2179 12.376 99.4764 11.3705C99.5992 10.904 99.7859 10.4552 100.032 10.0356C100.51 9.22299 101.211 8.5513 102.059 8.09336C102.495 7.85854 102.962 7.67969 103.447 7.56138C103.966 7.43534 104.499 7.37294 105.034 7.37569C105.323 7.37507 105.612 7.39183 105.898 7.42588C106.162 7.45715 106.423 7.50748 106.679 7.57644C106.916 7.64092 107.149 7.7197 107.376 7.81231C107.588 7.89885 107.793 8.00121 107.988 8.11845C108.172 8.22881 108.344 8.35659 108.502 8.49987C108.649 8.63375 108.786 8.77803 108.91 8.93147V7.67679H111.917V18.1356H108.91V16.881C108.718 17.1121 108.498 17.3209 108.256 17.5033C107.987 17.7052 107.693 17.8738 107.381 18.0052C107.033 18.1514 106.67 18.2591 106.297 18.3264C105.88 18.4018 105.458 18.4388 105.034 18.4368C104.499 18.4395 103.966 18.3771 103.447 18.2511ZM92.5313 10.3266C92.9619 10.3342 93.3917 10.2869 93.8094 10.1861C94.1349 10.1073 94.4388 9.96178 94.6999 9.75953C94.9356 9.57118 95.1161 9.32732 95.2237 9.0519C95.341 8.73984 95.3978 8.40989 95.3913 8.07828C95.3981 7.74829 95.3412 7.41994 95.2237 7.10968C95.1158 6.83725 94.9352 6.5967 94.6999 6.41209C94.4375 6.21285 94.134 6.06917 93.8094 5.99053C93.3917 5.88982 92.9619 5.84257 92.5313 5.85H89.5769V10.3266L92.5313 10.3266ZM86.4654 3.38083H92.8246C93.8234 3.38083 94.6895 3.49793 95.4228 3.73214C96.1561 3.96634 96.7602 4.29088 97.2352 4.70575C97.7076 5.11711 98.072 5.62953 98.2986 6.20131C98.5364 6.80408 98.6554 7.44393 98.6495 8.08832C98.657 8.73121 98.538 9.36969 98.2986 9.97031C98.0683 10.5373 97.7043 11.0457 97.2352 11.4558C96.7602 11.8742 96.1561 12.2004 95.4228 12.4345C94.6894 12.6688 93.8234 12.7859 92.8246 12.7858H89.5769V18.1356H86.4654V3.38083ZM73.1044 7.67679H76.0902V8.93145C76.2744 8.68793 76.493 8.47005 76.7397 8.28404C77.0007 8.0878 77.2857 7.92265 77.5883 7.79222C77.9217 7.64938 78.2716 7.54493 78.6307 7.48106C79.0296 7.40919 79.4348 7.3739 79.8407 7.37567C80.4728 7.367 81.1013 7.46905 81.6951 7.67679C82.2241 7.86352 82.7035 8.16 83.0989 8.54502C83.4962 8.94402 83.7967 9.42213 83.9789 9.94522C84.1892 10.5467 84.2919 11.1779 84.2827 11.8122V18.1356H81.297V12.5549C81.3041 12.1469 81.244 11.7404 81.1189 11.3504C81.0153 11.0284 80.8422 10.7309 80.6107 10.4772C80.3883 10.2415 80.1098 10.0607 79.7988 9.95024C79.4463 9.82809 79.0736 9.76856 78.6988 9.77459C78.3223 9.76888 77.9479 9.82838 77.5935 9.95024C77.2806 10.0598 77.0001 10.2406 76.7764 10.4772C76.545 10.7309 76.3718 11.0284 76.2683 11.3504C76.1431 11.7404 76.083 12.1469 76.0902 12.5549V18.1356H73.1044V7.67679ZM65.757 15.8923C66.042 15.8263 66.318 15.7286 66.5794 15.6012C66.8281 15.4794 67.0559 15.322 67.2551 15.1345C67.4524 14.9494 67.6232 14.7402 67.7632 14.5122C67.906 14.2774 68.0119 14.0237 68.0775 13.7594C68.1488 13.4733 68.1839 13.1802 68.1823 12.8861C68.1841 12.5937 68.149 12.3022 68.0775 12.0179C67.9454 11.4939 67.6601 11.0169 67.2551 10.6428C67.0533 10.4569 66.826 10.2982 66.5794 10.171C66.3202 10.0378 66.0436 9.93823 65.757 9.87493C65.446 9.80653 65.1279 9.77285 64.8089 9.77456C64.4933 9.7732 64.1787 9.80688 63.8712 9.87493C63.5861 9.93763 63.3111 10.0372 63.0541 10.171C62.8097 10.299 62.5842 10.4577 62.3836 10.6428C62.186 10.8251 62.0182 11.0349 61.8859 11.2651C61.7508 11.5016 61.6453 11.7526 61.5716 12.0129C61.4925 12.2977 61.4537 12.5914 61.4564 12.8861C61.4546 13.1808 61.4933 13.4744 61.5716 13.7594C61.6433 14.0219 61.7489 14.2747 61.8859 14.5122C62.0198 14.7414 62.1874 14.951 62.3836 15.1345C62.5815 15.3212 62.8075 15.4785 63.0541 15.6012C63.3133 15.7292 63.5877 15.8269 63.8712 15.8923C64.1781 15.9638 64.493 15.9991 64.8089 15.9977C65.1282 15.9995 65.4466 15.9641 65.757 15.8923V15.8923ZM63.0488 18.246C62.5101 18.1259 61.9879 17.9457 61.493 17.709C61.0275 17.4867 60.5958 17.2048 60.2097 16.8709C59.8355 16.5466 59.511 16.1732 59.2458 15.7618C58.9771 15.3431 58.7708 14.8904 58.633 14.4168C58.3466 13.4148 58.3466 12.3575 58.633 11.3555C58.7702 10.8833 58.9765 10.4322 59.2458 10.0155C59.5129 9.60545 59.8372 9.2323 60.2097 8.90639C60.5948 8.5699 61.0266 8.28616 61.493 8.06325C61.988 7.8267 62.5101 7.64648 63.0488 7.52626C64.2142 7.27198 65.4244 7.27198 66.5898 7.52626C67.1255 7.6454 67.6443 7.82569 68.1351 8.06325C68.5995 8.28947 69.0309 8.57292 69.4185 8.90639C69.7967 9.23111 70.1264 9.60434 70.398 10.0155C70.6704 10.4313 70.8785 10.8826 71.0161 11.3555C71.3025 12.3575 71.3025 13.4148 71.0161 14.4168C70.878 14.8911 70.6698 15.344 70.398 15.7618C70.1283 16.1743 69.7984 16.5478 69.4185 16.8709C69.0299 17.2018 68.5986 17.4834 68.1351 17.709C67.6459 17.9462 67.1289 18.1265 66.5951 18.246C65.4279 18.5003 64.216 18.5003 63.0488 18.246ZM51.3978 15.8923C51.6828 15.8263 51.9588 15.7286 52.2202 15.6012C52.4689 15.4794 52.6967 15.322 52.8959 15.1345C53.0932 14.9494 53.264 14.7402 53.404 14.5122C53.5469 14.2774 53.6528 14.0237 53.7183 13.7594C53.7896 13.4733 53.8247 13.1802 53.8231 12.8861C53.8249 12.5937 53.7898 12.3022 53.7183 12.0179C53.5862 11.4939 53.3009 11.0169 52.8959 10.6428C52.6941 10.4569 52.4667 10.2982 52.2202 10.171C51.961 10.0378 51.6844 9.9382 51.3978 9.87493C51.0868 9.80653 50.7687 9.77285 50.4497 9.77456C50.1341 9.77321 49.8195 9.80689 49.512 9.87493C49.2269 9.93763 48.9519 10.0372 48.6948 10.171C48.4505 10.2991 48.225 10.4577 48.0244 10.6428C47.8267 10.8251 47.659 11.0349 47.5267 11.2651C47.3917 11.5017 47.2862 11.7527 47.2124 12.0129C47.1333 12.2977 47.0945 12.5914 47.0972 12.8861C47.0954 13.1808 47.1342 13.4744 47.2124 13.7594C47.2842 14.0218 47.3898 14.2747 47.5267 14.5122C47.6606 14.7414 47.8282 14.9509 48.0244 15.1345C48.2224 15.3212 48.4483 15.4785 48.6948 15.6012C48.9541 15.7292 49.2285 15.8269 49.512 15.8923C49.819 15.9637 50.1338 15.9991 50.4497 15.9977C50.769 15.9995 51.0874 15.9641 51.3978 15.8923ZM48.6896 18.246C48.1509 18.1259 47.6287 17.9457 47.1339 17.7091C46.6684 17.4867 46.2367 17.2048 45.8505 16.871C45.4763 16.5466 45.1518 16.1732 44.8867 15.7619C44.6179 15.3431 44.4116 14.8904 44.2738 14.4169C43.9874 13.4149 43.9874 12.3575 44.2738 11.3555C44.411 10.8834 44.6173 10.4322 44.8867 10.0155C45.1537 9.60553 45.478 9.23238 45.8505 8.90644C46.2356 8.56998 46.6675 8.28624 47.1339 8.0633C47.6288 7.82675 48.1509 7.64653 48.6896 7.52631C49.855 7.27203 51.0652 7.27203 52.2307 7.52631C52.7663 7.64543 53.2851 7.82572 53.7759 8.0633C54.2403 8.28949 54.6717 8.57294 55.0593 8.90644C55.4376 9.23113 55.7672 9.60436 56.0389 10.0155C56.3112 10.4313 56.5194 10.8826 56.657 11.3555C56.9433 12.3575 56.9433 13.4149 56.657 14.4169C56.5188 14.8911 56.3107 15.344 56.0389 15.7619C55.7691 16.1744 55.4393 16.5479 55.0593 16.871C54.6707 17.2018 54.2394 17.4835 53.7759 17.7091C53.2868 17.9462 52.7697 18.1265 52.2359 18.246C51.0687 18.5003 49.8568 18.5003 48.6896 18.246ZM25.1237 3.38083H28.2667L33.6411 11.25L39.0365 3.38083H42.1794V18.1356H39.0679V8.01806L34.6049 14.5423H32.6982L28.2352 8.01806V18.1356H25.1237V3.38083Z" fill="#E8E8E8"/>
<path d="M17.9471 6.02236C18.5687 6.02236 19.1764 5.84576 19.6933 5.51488C20.2101 5.18401 20.613 4.71373 20.8508 4.1635C21.0887 3.61328 21.151 3.00783 21.0297 2.42372C20.9084 1.83961 20.6091 1.30306 20.1695 0.881942C19.73 0.46082 19.17 0.174032 18.5603 0.0578452C17.9506 -0.0583421 17.3187 0.00128944 16.7444 0.229199C16.1701 0.457109 15.6792 0.84306 15.3339 1.33825C14.9885 1.83343 14.8042 2.41562 14.8042 3.01117C14.8042 3.40661 14.8854 3.79819 15.0434 4.16353C15.2013 4.52888 15.4328 4.86084 15.7247 5.14046C16.0165 5.42008 16.363 5.64188 16.7444 5.7932C17.1257 5.94451 17.5344 6.02238 17.9471 6.02236V6.02236ZM8.3101 19.584C6.79491 19.584 5.31375 19.1535 4.05392 18.347C2.79408 17.5405 1.81216 16.3942 1.23233 15.053C0.652488 13.7118 0.500777 12.2361 0.796377 10.8123C1.09198 9.3885 1.82161 8.08068 2.89301 7.0542C3.96441 6.02771 5.32946 5.32867 6.81553 5.04546C8.30161 4.76226 9.84196 4.90761 11.2418 5.46315C12.6417 6.01868 13.8381 6.95944 14.6799 8.16646C15.5217 9.37349 15.971 10.7926 15.971 12.2442C15.971 13.2081 15.7729 14.1626 15.3879 15.0531C15.0029 15.9436 14.4386 16.7527 13.7272 17.4343C13.0159 18.1158 12.1713 18.6565 11.2418 19.0253C10.3124 19.3942 9.31615 19.584 8.3101 19.584" fill="#7CFFEC"/>
</g>
<defs>
<clipPath id="clip0_23_25">
<rect width="126" height="22" fill="white" transform="translate(0.649292)"/>
</clipPath>
</defs>
</svg>
